<?xml version="1.0" encoding="utf-8"?>
<!-- Generator: Adobe Illustrator 19.2.1, SVG Export Plug-In . SVG Version: 6.00 Build 0)  -->
<svg version="1.1" id="Capa_1" xmlns="http://www.w3.org/2000/svg" xmlns:xlink="http://www.w3.org/1999/xlink" x="0px" y="0px"
	 viewBox="0 0 190.6 78" style="enable-background:new 0 0 190.6 78;" xml:space="preserve">
<style type="text/css">
	.st0{display:none;fill:#212121;}
</style>
<path class="st0" d="M55.2,9.5C42.5-3.2,22.1-3.2,9.5,9.5s-12.6,33.1,0,45.7L32.3,78l22.8-22.8C67.8,42.5,67.8,22.1,55.2,9.5z
	 M18,18h14.8c-2.1,1.7-3.7,3.4-4.4,5.9h-7.6c-1.7,0-2.8-0.7-2.8-2.4V18L18,18z M48.3,33.8c0.1,1.4-1,2.6-2.4,2.7c-0.1,0-0.3,0-0.4,0
	h-6.1c-1.7,0-2.8,1.8-2.8,3.5v6.2c0,5.1-4.1,9.2-9.2,9.2c-0.1,0-0.2,0-0.4,0c-5-0.3-8.9-4.4-8.9-9.5v-9.4h2.8
	c1.8,0.2,3.1,1.7,3.1,3.5v6.2c0,1.7,1.3,3,2.9,3.1c0,0,0,0,0.1,0c1.7-0.1,2.9-1.5,2.9-3.1v-0.1v-6c0.1-5.2,4.3-9.4,9.5-9.4h9
	L48.3,33.8L48.3,33.8z M48.3,21.5c0,1.7-1.1,2.4-2.8,2.4h-6.1c-1.7,0-2.8,2.1-2.8,3.8V29c-2.7,0.6-5.1,2.2-6.7,4.5v-5.8
	c0.1-5.2,4.3-9.5,9.5-9.6h9L48.3,21.5L48.3,21.5z"/>
<g>
	<path d="M113.6,7.9h2.8V23c0,1.1-0.2,2-0.5,2.8s-0.8,1.5-1.4,2s-1.3,1-2.1,1.2s-1.7,0.4-2.7,0.4s-1.9-0.1-2.7-0.4s-1.5-0.6-2.1-1.1
		s-1.1-1.2-1.4-1.9s-0.5-1.7-0.5-2.7h2.8c0,0.7,0.1,1.3,0.3,1.7s0.5,0.9,0.8,1.2s0.8,0.6,1.2,0.7s1,0.2,1.6,0.2s1.1-0.1,1.6-0.3
		s0.9-0.4,1.2-0.8s0.6-0.8,0.8-1.3s0.3-1.1,0.3-1.8L113.6,7.9L113.6,7.9z"/>
	<path d="M130.6,29.2c-0.1-0.2-0.2-0.4-0.2-0.7s-0.1-0.6-0.1-0.9c-0.3,0.3-0.5,0.5-0.9,0.8s-0.7,0.4-1,0.6s-0.8,0.3-1.2,0.4
		s-0.9,0.2-1.4,0.2c-0.8,0-1.5-0.1-2.2-0.4s-1.2-0.6-1.7-1s-0.8-0.9-1.1-1.5s-0.4-1.2-0.4-1.8c0-0.8,0.2-1.6,0.5-2.2
		s0.8-1.2,1.4-1.6s1.4-0.8,2.2-1s1.9-0.3,2.9-0.3h2.7v-1.2c0-0.9-0.3-1.7-0.8-2.3s-1.4-0.8-2.5-0.8c-0.5,0-1,0.1-1.4,0.2
		s-0.8,0.3-1.1,0.5s-0.5,0.5-0.7,0.8s-0.2,0.6-0.2,1h-2.7c0-0.6,0.1-1.1,0.4-1.7s0.7-1.1,1.3-1.5s1.2-0.8,2-1.1s1.6-0.4,2.6-0.4
		c0.9,0,1.7,0.1,2.4,0.3s1.4,0.6,1.9,1s0.9,1,1.2,1.7c0.3,0.7,0.4,1.4,0.4,2.3V26c0,0.5,0,1.1,0.1,1.7s0.2,1.1,0.4,1.5v0.2h-2.8
		V29.2z M126.1,27.1c0.5,0,0.9-0.1,1.4-0.2s0.8-0.3,1.2-0.5s0.7-0.5,0.9-0.8s0.5-0.6,0.6-0.9v-3.3h-2.3c-1.6,0-2.7,0.2-3.6,0.7
		s-1.3,1.2-1.3,2.2c0,0.4,0.1,0.7,0.2,1.1s0.3,0.6,0.6,0.9s0.6,0.4,1,0.6S125.6,27.1,126.1,27.1z"/>
	<path d="M139.8,15.3c0.6-0.7,1.2-1.2,2-1.6s1.7-0.6,2.7-0.6c0.8,0,1.5,0.1,2.1,0.3s1.2,0.5,1.6,1s0.8,1.1,1,1.8s0.4,1.6,0.4,2.6
		v10.4h-2.7V18.8c0-0.6-0.1-1.1-0.2-1.6s-0.3-0.8-0.6-1.1s-0.6-0.5-1-0.6s-0.9-0.2-1.4-0.2c-0.9,0-1.7,0.2-2.3,0.7s-1.2,1.1-1.6,1.8
		v11.3h-2.7V6.7h2.7V15.3z"/>
	<path d="M153.6,9.1c0-0.4,0.1-0.8,0.4-1.1s0.7-0.5,1.2-0.5s0.9,0.2,1.2,0.5s0.4,0.7,0.4,1.1s-0.1,0.8-0.4,1.1s-0.7,0.4-1.2,0.4
		s-0.9-0.1-1.2-0.4S153.6,9.6,153.6,9.1z M156.6,29.2h-2.7V13.4h2.7V29.2z"/>
	<path d="M168.6,15.8c-0.2,0-0.5-0.1-0.7-0.1s-0.4,0-0.7,0c-0.9,0-1.7,0.2-2.3,0.6s-1,1-1.3,1.7v11.3h-2.7V13.4h2.6v1.8
		c0.4-0.7,0.9-1.2,1.5-1.6s1.4-0.6,2.2-0.6c0.2,0,0.4,0,0.7,0.1s0.4,0.1,0.5,0.1v2.6H168.6z"/>
	<path d="M93.6,55.8h-9v9.4h-2.8V43.9H95v2.3H84.6v7.3h9V55.8z"/>
	<path d="M98,45.1c0-0.4,0.1-0.8,0.4-1.1s0.7-0.5,1.2-0.5s0.9,0.2,1.2,0.5s0.4,0.7,0.4,1.1s-0.1,0.8-0.4,1.1s-0.7,0.4-1.2,0.4
		s-0.9-0.1-1.2-0.4S98,45.6,98,45.1z M100.9,65.2h-2.7V49.4h2.7V65.2z"/>
	<path d="M104.6,57.1c0-1.2,0.1-2.3,0.4-3.3s0.7-1.8,1.2-2.5s1.2-1.3,2-1.6s1.7-0.6,2.7-0.6s1.8,0.2,2.5,0.5s1.4,0.8,1.9,1.4
		l0.1-1.6h2.5v21.9h-2.7v-7.6c-0.5,0.6-1.2,1-1.9,1.3s-1.6,0.5-2.5,0.5c-1,0-1.9-0.2-2.6-0.6s-1.4-1-2-1.7s-1-1.6-1.2-2.5
		s-0.4-2.1-0.4-3.2V57.1z M107.3,57.5c0,0.8,0.1,1.5,0.2,2.2s0.4,1.3,0.8,1.9s0.8,0.9,1.3,1.3s1.2,0.5,1.9,0.5
		c0.9,0,1.6-0.2,2.2-0.6s1.1-0.9,1.5-1.5v-7.8c-0.2-0.3-0.4-0.6-0.6-0.8s-0.5-0.5-0.8-0.7s-0.6-0.3-1-0.4s-0.8-0.2-1.2-0.2
		c-0.7,0-1.4,0.2-1.9,0.5s-1,0.7-1.3,1.3s-0.6,1.2-0.8,1.9s-0.2,1.5-0.2,2.2L107.3,57.5L107.3,57.5z"/>
	<path d="M132.1,63.6c-0.5,0.6-1.1,1-1.9,1.4s-1.7,0.5-2.8,0.5c-0.8,0-1.5-0.1-2.1-0.3s-1.2-0.6-1.6-1s-0.8-1.1-1.1-1.8
		s-0.4-1.6-0.4-2.7V49.4h2.7v10.3c0,0.7,0.1,1.3,0.2,1.8s0.4,0.8,0.7,1.1s0.6,0.5,0.9,0.6s0.7,0.2,1.1,0.2c1.1,0,2-0.2,2.7-0.6
		s1.2-1,1.5-1.7V49.4h2.7v15.8h-2.6L132.1,63.6z"/>
	<path d="M138.9,45.1c0-0.4,0.1-0.8,0.4-1.1s0.7-0.5,1.2-0.5s0.9,0.2,1.2,0.5s0.4,0.7,0.4,1.1s-0.1,0.8-0.4,1.1s-0.7,0.4-1.2,0.4
		s-0.9-0.1-1.2-0.4S138.9,45.6,138.9,45.1z M141.8,65.2h-2.7V49.4h2.7V65.2z"/>
	<path d="M149.8,45.5v3.8h3v2.1h-3v9.8c0,0.4,0,0.7,0.1,1s0.2,0.4,0.4,0.6s0.3,0.2,0.6,0.3s0.4,0.1,0.7,0.1s0.5,0,0.7-0.1
		s0.4-0.1,0.6-0.1v2.2c-0.2,0.1-0.5,0.1-0.8,0.2s-0.8,0.1-1.2,0.1c-0.5,0-1-0.1-1.4-0.2s-0.8-0.4-1.2-0.7s-0.6-0.8-0.8-1.3
		s-0.3-1.2-0.3-2v-9.8h-2.9v-2.1h2.9v-3.8h2.6V45.5z"/>
	<path d="M156,45.1c0-0.4,0.1-0.8,0.4-1.1s0.7-0.5,1.2-0.5s0.9,0.2,1.2,0.5s0.4,0.7,0.4,1.1s-0.1,0.8-0.4,1.1s-0.7,0.4-1.2,0.4
		s-0.9-0.1-1.2-0.4S156,45.6,156,45.1z M158.9,65.2h-2.7V49.4h2.7V65.2z"/>
	<path d="M168.5,61.5l3.9-12.2h2.8l-5.7,15.8h-2.1l-5.7-15.8h2.8L168.5,61.5z"/>
	<path d="M187.3,65.2c-0.1-0.2-0.2-0.4-0.2-0.7s-0.1-0.6-0.1-0.9c-0.3,0.3-0.5,0.5-0.9,0.8s-0.7,0.4-1,0.6c-0.4,0.2-0.8,0.3-1.2,0.4
		s-0.9,0.2-1.4,0.2c-0.8,0-1.5-0.1-2.2-0.4c-0.7-0.2-1.2-0.6-1.7-1s-0.8-0.9-1.1-1.5s-0.4-1.2-0.4-1.8c0-0.8,0.2-1.6,0.5-2.2
		s0.8-1.2,1.4-1.6c0.6-0.4,1.4-0.8,2.2-1s1.9-0.3,2.9-0.3h2.7v-1.2c0-0.9-0.3-1.7-0.8-2.3s-1.4-0.8-2.5-0.8c-0.5,0-1,0.1-1.4,0.2
		s-0.8,0.3-1.1,0.5s-0.5,0.5-0.7,0.8s-0.2,0.6-0.2,1h-2.7c0-0.6,0.1-1.1,0.4-1.7s0.7-1.1,1.3-1.5s1.2-0.8,2-1.1s1.6-0.4,2.6-0.4
		c0.9,0,1.7,0.1,2.4,0.3s1.4,0.6,1.9,1s0.9,1,1.2,1.7s0.4,1.4,0.4,2.3V62c0,0.5,0,1.1,0.1,1.7s0.2,1.1,0.4,1.5v0.2h-2.8V65.2z
		 M182.8,63.1c0.5,0,0.9-0.1,1.4-0.2s0.8-0.3,1.2-0.5s0.7-0.5,0.9-0.8s0.5-0.6,0.6-0.9v-3.3h-2.3c-1.6,0-2.7,0.2-3.6,0.7
		s-1.3,1.2-1.3,2.2c0,0.4,0.1,0.7,0.2,1.1s0.3,0.6,0.6,0.9c0.3,0.2,0.6,0.4,1,0.6S182.3,63.1,182.8,63.1z"/>
</g>
<path d="M55.2,9.4C48.9,3.1,40.6,0,32.3,0S15.8,3.1,9.5,9.4C-3.1,22-3.1,42.5,9.5,55.1L32.3,78l22.9-22.9
	C67.8,42.5,67.8,22,55.2,9.4z M17.7,22.2v-2.7h14.2c-1.8,1.2-3.1,3.1-3.5,5.3h-8.1C18.9,24.8,17.7,23.6,17.7,22.2z M45.6,34.1
	c0,1.5-1.2,2.7-2.7,2.7h-5.3c-1.5,0-2.7,1.2-2.7,2.7v4c0,4.4-3.6,8-8,8h0c-4.4,0-8-3.6-8-8v-6.6h2.7c1.5,0,2.7,1.2,2.7,2.7v4
	c0,1.5,1.2,2.7,2.7,2.7s2.7-1.2,2.7-2.7v-4c0-4.4,3.6-8,8-8h8V34.1z M47,22.2c0,1.5-1.2,2.7-2.7,2.7h-6.6c-1.5,0-2.7,1.2-2.7,2.7
	v2.8c-2.2,0.4-4.1,1.7-5.3,3.5v-6.2c0-4.4,3.6-8,8-8H47V22.2z"/>
</svg>
