<?xml version="1.0" encoding="utf-8"?>
<!-- Generator: Adobe Illustrator 22.0.1, SVG Export Plug-In . SVG Version: 6.00 Build 0)  -->
<svg xmlns:xlink="http://www.w3.org/1999/xlink" version="1.1" xmlns="http://www.w3.org/2000/svg" x="0px" y="0px"
	 viewBox="0 0 32 32" style="enable-background:new 0 0 32 32;" xml:space="preserve">
<style type="text/css">
	.st0{clip-path:url(#SVGID_2_);}
	.st1{fill:none;stroke:#000000;stroke-width:0.25;stroke-miterlimit:10;}
	.st2{opacity:0.4;}
	.st3{clip-path:url(#SVGID_4_);}
	.st4{fill:#BD463A;fill-opacity:0.4;}
	.st5{display:none;}
	.st6{display:inline;}
	.st7{display:none;fill:#0091EA;}
	.st8{fill:#FFFFFF;}
</style>
<symbol  id="material_x5F_product_x5F_icon_x5F_grid" viewBox="0 -192 192 192">
	<g>
		<defs>
			<rect id="SVGID_1_" x="0" y="-192" width="192" height="192"/>
		</defs>
		<clipPath id="SVGID_2_">
			<use xlink:href="#SVGID_1_"  style="overflow:visible;"/>
		</clipPath>
		<g class="st0">
			<g>
				<line class="st1" x1="4" y1="-192" x2="4" y2="0"/>
				<line class="st1" x1="8" y1="-192" x2="8" y2="0"/>
				<line class="st1" x1="12" y1="-192" x2="12" y2="0"/>
				<line class="st1" x1="16" y1="-192" x2="16" y2="0"/>
				<line class="st1" x1="20" y1="-192" x2="20" y2="0"/>
				<line class="st1" x1="24" y1="-192" x2="24" y2="0"/>
				<line class="st1" x1="28" y1="-192" x2="28" y2="0"/>
				<line class="st1" x1="32" y1="-192" x2="32" y2="0"/>
				<line class="st1" x1="36" y1="-192" x2="36" y2="0"/>
				<line class="st1" x1="40" y1="-192" x2="40" y2="0"/>
				<line class="st1" x1="44" y1="-192" x2="44" y2="0"/>
				<line class="st1" x1="48" y1="-192" x2="48" y2="0"/>
				<line class="st1" x1="52" y1="-192" x2="52" y2="0"/>
				<line class="st1" x1="56" y1="-192" x2="56" y2="0"/>
				<line class="st1" x1="60" y1="-192" x2="60" y2="0"/>
				<line class="st1" x1="64" y1="-192" x2="64" y2="0"/>
				<line class="st1" x1="68" y1="-192" x2="68" y2="0"/>
				<line class="st1" x1="72" y1="-192" x2="72" y2="0"/>
				<line class="st1" x1="76" y1="-192" x2="76" y2="0"/>
				<line class="st1" x1="80" y1="-192" x2="80" y2="0"/>
				<line class="st1" x1="84" y1="-192" x2="84" y2="0"/>
				<line class="st1" x1="88" y1="-192" x2="88" y2="0"/>
				<line class="st1" x1="92" y1="-192" x2="92" y2="0"/>
				<line class="st1" x1="96" y1="-192" x2="96" y2="0"/>
				<line class="st1" x1="100" y1="-192" x2="100" y2="0"/>
				<line class="st1" x1="104" y1="-192" x2="104" y2="0"/>
				<line class="st1" x1="108" y1="-192" x2="108" y2="0"/>
				<line class="st1" x1="112" y1="-192" x2="112" y2="0"/>
				<line class="st1" x1="116" y1="-192" x2="116" y2="0"/>
				<line class="st1" x1="120" y1="-192" x2="120" y2="0"/>
				<line class="st1" x1="124" y1="-192" x2="124" y2="0"/>
				<line class="st1" x1="128" y1="-192" x2="128" y2="0"/>
				<line class="st1" x1="132" y1="-192" x2="132" y2="0"/>
				<line class="st1" x1="136" y1="-192" x2="136" y2="0"/>
				<line class="st1" x1="140" y1="-192" x2="140" y2="0"/>
				<line class="st1" x1="144" y1="-192" x2="144" y2="0"/>
				<line class="st1" x1="148" y1="-192" x2="148" y2="0"/>
				<line class="st1" x1="152" y1="-192" x2="152" y2="0"/>
				<line class="st1" x1="156" y1="-192" x2="156" y2="0"/>
				<line class="st1" x1="160" y1="-192" x2="160" y2="0"/>
				<line class="st1" x1="164" y1="-192" x2="164" y2="0"/>
				<line class="st1" x1="168" y1="-192" x2="168" y2="0"/>
				<line class="st1" x1="172" y1="-192" x2="172" y2="0"/>
				<line class="st1" x1="176" y1="-192" x2="176" y2="0"/>
				<line class="st1" x1="180" y1="-192" x2="180" y2="0"/>
				<line class="st1" x1="184" y1="-192" x2="184" y2="0"/>
				<line class="st1" x1="188" y1="-192" x2="188" y2="0"/>
			</g>
			<g>
				<line class="st1" x1="0" y1="-4" x2="192" y2="-4"/>
				<line class="st1" x1="0" y1="-8" x2="192" y2="-8"/>
				<line class="st1" x1="0" y1="-12" x2="192" y2="-12"/>
				<line class="st1" x1="0" y1="-16" x2="192" y2="-16"/>
				<line class="st1" x1="0" y1="-20" x2="192" y2="-20"/>
				<line class="st1" x1="0" y1="-24" x2="192" y2="-24"/>
				<line class="st1" x1="0" y1="-28" x2="192" y2="-28"/>
				<line class="st1" x1="0" y1="-32" x2="192" y2="-32"/>
				<line class="st1" x1="0" y1="-36" x2="192" y2="-36"/>
				<line class="st1" x1="0" y1="-40" x2="192" y2="-40"/>
				<line class="st1" x1="0" y1="-44" x2="192" y2="-44"/>
				<line class="st1" x1="0" y1="-48" x2="192" y2="-48"/>
				<line class="st1" x1="0" y1="-52" x2="192" y2="-52"/>
				<line class="st1" x1="0" y1="-56" x2="192" y2="-56"/>
				<line class="st1" x1="0" y1="-60" x2="192" y2="-60"/>
				<line class="st1" x1="0" y1="-64" x2="192" y2="-64"/>
				<line class="st1" x1="0" y1="-68" x2="192" y2="-68"/>
				<line class="st1" x1="0" y1="-72" x2="192" y2="-72"/>
				<line class="st1" x1="0" y1="-76" x2="192" y2="-76"/>
				<line class="st1" x1="0" y1="-80" x2="192" y2="-80"/>
				<line class="st1" x1="0" y1="-84" x2="192" y2="-84"/>
				<line class="st1" x1="0" y1="-88" x2="192" y2="-88"/>
				<line class="st1" x1="0" y1="-92" x2="192" y2="-92"/>
				<line class="st1" x1="0" y1="-96" x2="192" y2="-96"/>
				<line class="st1" x1="0" y1="-100" x2="192" y2="-100"/>
				<line class="st1" x1="0" y1="-104" x2="192" y2="-104"/>
				<line class="st1" x1="0" y1="-108" x2="192" y2="-108"/>
				<line class="st1" x1="0" y1="-112" x2="192" y2="-112"/>
				<line class="st1" x1="0" y1="-116" x2="192" y2="-116"/>
				<line class="st1" x1="0" y1="-120" x2="192" y2="-120"/>
				<line class="st1" x1="0" y1="-124" x2="192" y2="-124"/>
				<line class="st1" x1="0" y1="-128" x2="192" y2="-128"/>
				<line class="st1" x1="0" y1="-132" x2="192" y2="-132"/>
				<line class="st1" x1="0" y1="-136" x2="192" y2="-136"/>
				<line class="st1" x1="0" y1="-140" x2="192" y2="-140"/>
				<line class="st1" x1="0" y1="-144" x2="192" y2="-144"/>
				<line class="st1" x1="0" y1="-148" x2="192" y2="-148"/>
				<line class="st1" x1="0" y1="-152" x2="192" y2="-152"/>
				<line class="st1" x1="0" y1="-156" x2="192" y2="-156"/>
				<line class="st1" x1="0" y1="-160" x2="192" y2="-160"/>
				<line class="st1" x1="0" y1="-164" x2="192" y2="-164"/>
				<line class="st1" x1="0" y1="-168" x2="192" y2="-168"/>
				<line class="st1" x1="0" y1="-172" x2="192" y2="-172"/>
				<line class="st1" x1="0" y1="-176" x2="192" y2="-176"/>
				<line class="st1" x1="0" y1="-180" x2="192" y2="-180"/>
				<line class="st1" x1="0" y1="-184" x2="192" y2="-184"/>
				<line class="st1" x1="0" y1="-188" x2="192" y2="-188"/>
			</g>
			<g>
				<path d="M191.8-0.3v-191.5H0.3V-0.3H191.8 M192,0H0v-192h192V0L192,0z"/>
			</g>
		</g>
	</g>
</symbol>
<symbol  id="material_x5F_product_x5F_icon_x5F_keylines" viewBox="0 -192 192 192">
	<g class="st2">
		<defs>
			<path id="SVGID_3_" class="st2" d="M0,0v-192h192V0H0z"/>
		</defs>
		<clipPath id="SVGID_4_">
			<use xlink:href="#SVGID_3_"  style="overflow:visible;"/>
		</clipPath>
		<g class="st3">
			<line class="st1" x1="0.2" y1="-0.2" x2="191.7" y2="-191.7"/>
			<g>
				<path d="M191.8-0.3v-191.5H0.3V-0.3H191.8 M192,0H0v-192h192V0L192,0z"/>
			</g>
			<line class="st1" x1="191.7" y1="-0.2" x2="0.2" y2="-191.7"/>
			<line class="st1" x1="124" y1="0" x2="124" y2="-192"/>
			<line class="st1" x1="68" y1="0" x2="68" y2="-192"/>
			<line class="st1" x1="192" y1="-124" x2="0" y2="-124"/>
			<line class="st1" x1="192" y1="-68" x2="0" y2="-68"/>
			<circle class="st1" cx="96" cy="-96" r="40"/>
			<line class="st1" x1="0" y1="-96" x2="192" y2="-96"/>
			<line class="st1" x1="96" y1="0" x2="96" y2="-192"/>
		</g>
		<g class="st3">
			<g>
				<path d="M96-8.3c48.4,0,87.8-39.4,87.8-87.8s-39.4-87.8-87.8-87.8S8.3-144.4,8.3-96S47.6-8.3,96-8.3 M96-8C47.4-8,8-47.4,8-96
					s39.4-88,88-88s88,39.4,88,88S144.6-8,96-8L96-8z"/>
			</g>
		</g>
		<g class="st3">
			<g>
				<path d="M160-20.3c6.5,0,11.8-5.3,11.8-11.8v-128c0-6.5-5.3-11.8-11.8-11.8H32c-6.5,0-11.8,5.3-11.8,11.8v128
					c0,6.5,5.3,11.8,11.8,11.8H160 M160-20H32c-6.6,0-12-5.4-12-12v-128c0-6.6,5.4-12,12-12h128c6.6,0,12,5.4,12,12v128
					C172-25.4,166.6-20,160-20L160-20z"/>
			</g>
		</g>
		<g class="st3">
			<g>
				<path d="M148-8.3c6.5,0,11.8-5.3,11.8-11.8v-152c0-6.5-5.3-11.8-11.8-11.8H44c-6.5,0-11.8,5.3-11.8,11.8v152
					c0,6.5,5.3,11.8,11.8,11.8H148 M148-8H44c-6.6,0-12-5.4-12-12v-152c0-6.6,5.4-12,12-12h104c6.6,0,12,5.4,12,12v152
					C160-13.4,154.6-8,148-8L148-8z"/>
			</g>
		</g>
		<g class="st3">
			<g>
				<path d="M172-32.3c6.5,0,11.8-5.3,11.8-11.8v-104c0-6.5-5.3-11.8-11.8-11.8H20c-6.5,0-11.8,5.3-11.8,11.8v104
					c0,6.5,5.3,11.8,11.8,11.8H172 M172-32H20c-6.6,0-12-5.4-12-12v-104c0-6.6,5.4-12,12-12h152c6.6,0,12,5.4,12,12v104
					C184-37.4,178.6-32,172-32L172-32z"/>
			</g>
		</g>
	</g>
</symbol>
<symbol  id="material_x5F_product_x5F_icon_x5F_trim" viewBox="0 -192 192 192">
	<path class="st4" d="M0,0v-192h192V0H0z M184-184H8V-8l176,0V-184z"/>
</symbol>
<g id="Capa_1" class="st5">
	<g class="st6">
		
			<use xlink:href="#material_x5F_product_x5F_icon_x5F_keylines"  width="192" height="192" x="0" y="-192" transform="matrix(1 0 0 -1 -80 -80)" style="overflow:visible;"/>
		
			<use xlink:href="#material_x5F_product_x5F_icon_x5F_grid"  width="192" height="192" id="XMLID_2_" x="0" y="-192" transform="matrix(1 0 0 -1 -80 -80)" style="overflow:visible;opacity:0.15;"/>
		
			<use xlink:href="#material_x5F_product_x5F_icon_x5F_trim"  width="192" height="192" id="XMLID_1_" y="-192" transform="matrix(1 0 0 -1 -80 -80)" style="overflow:visible;"/>
	</g>
</g>
<g id="Capa_4">
	<path class="st7" d="M69.7-50.6c-29.7-28.5-77.8-28.5-107.5,0c-29.7,28.5-29.7,74.6,0,103.1L16,104l53.7-51.5
		C99.4,24,99.4-22.2,69.7-50.6z"/>
</g>
<g id="Capa_2">
	<path class="st8" d="M25.4,3.9C22.8,1.3,19.4,0,16,0S9.2,1.3,6.6,3.9C1.5,9,1.5,17.5,6.6,22.6L16,32l9.4-9.4
		C30.5,17.5,30.5,9,25.4,3.9z M10,9.1V8h5.8c-0.7,0.5-1.3,1.3-1.4,2.2h-3.3C10.5,10.2,10,9.7,10,9.1z M21.5,14
		c0,0.6-0.5,1.1-1.1,1.1h-2.2c-0.6,0-1.1,0.5-1.1,1.1v1.6c0,1.8-1.5,3.3-3.3,3.3h0c-1.8,0-3.3-1.5-3.3-3.3v-2.7h1.1
		c0.6,0,1.1,0.5,1.1,1.1v1.6c0,0.6,0.5,1.1,1.1,1.1c0.6,0,1.1-0.5,1.1-1.1v-1.6c0-1.8,1.5-3.3,3.3-3.3h3.3V14z M22,9.1
		c0,0.6-0.5,1.1-1.1,1.1h-2.7c-0.6,0-1.1,0.5-1.1,1.1v1.1c-0.9,0.2-1.7,0.7-2.2,1.4v-2.6c0-1.8,1.5-3.3,3.3-3.3H22V9.1z"/>
</g>
</svg>
