<?xml version="1.0" encoding="utf-8"?>
<!-- Generator: Adobe Illustrator 21.0.2, SVG Export Plug-In . SVG Version: 6.00 Build 0)  -->
<svg version="1.1" xmlns="http://www.w3.org/2000/svg" xmlns:xlink="http://www.w3.org/1999/xlink" x="0px" y="0px"
	 viewBox="0 0 32 32" style="enable-background:new 0 0 32 32;" xml:space="preserve">
<style type="text/css">
	.st0{display:none;}
	.st1{display:inline;fill:#4285F4;}
	.st2{display:inline;fill:#EB3B5A;}
	.st3{display:inline;fill:#FA8231;}
	.st4{display:inline;fill:#F7B731;}
	.st5{display:inline;fill:#20BF6B;}
	.st6{display:inline;fill:#3867D6;}
	.st7{display:inline;fill:#8854D0;}
	.st8{clip-path:url(#SVGID_2_);}
	.st9{fill:#FC5C65;}
	.st10{fill:#FD9644;}
	.st11{fill:#FED330;}
	.st12{fill:#26DE81;}
	.st13{fill:#4B7BEC;}
	.st14{fill:#A55EEA;}
</style>
<g id="Capa_1" class="st0">
	<path class="st1" d="M25.4,3.9C22.8,1.3,19.4,0,16,0S9.2,1.3,6.6,3.9C1.5,9,1.5,17.5,6.6,22.6L16,32l9.4-9.4
		C30.5,17.5,30.5,9,25.4,3.9z M10,9.3V8.2h5.8c-0.7,0.5-1.3,1.3-1.4,2.2h-3.3C10.5,10.4,10,9.9,10,9.3z M21.5,14.2
		c0,0.6-0.5,1.1-1.1,1.1h-2.2c-0.6,0-1.1,0.5-1.1,1.1V18c0,1.8-1.5,3.3-3.3,3.3l0,0c-1.8,0-3.3-1.5-3.3-3.3v-2.7h1.1
		c0.6,0,1.1,0.5,1.1,1.1V18c0,0.6,0.5,1.1,1.1,1.1s1.1-0.5,1.1-1.1v-1.6c0-1.8,1.5-3.3,3.3-3.3h3.3C21.5,13.1,21.5,14.2,21.5,14.2z
		 M22,9.3c0,0.6-0.5,1.1-1.1,1.1h-2.7c-0.6,0-1.1,0.5-1.1,1.1v1.1c-0.9,0.2-1.7,0.7-2.2,1.4v-2.6c0-1.8,1.5-3.3,3.3-3.3H22V9.3z"/>
</g>
<g id="Capa_2" class="st0">
	<rect x="0" class="st2" width="32" height="5.3"/>
	<rect x="0" y="5.3" class="st3" width="32" height="5.3"/>
	<rect x="0" y="10.7" class="st4" width="32" height="5.3"/>
	<rect x="0" y="16" class="st5" width="32" height="5.3"/>
	<rect x="0" y="21.3" class="st6" width="32" height="5.3"/>
	<rect x="0" y="26.7" class="st7" width="32" height="5.3"/>
</g>
<g id="Capa_3">
	<g>
		<defs>
			<path id="SVGID_1_" d="M25.4,3.9C22.8,1.3,19.4,0,16,0S9.2,1.3,6.6,3.9C1.5,9,1.5,17.5,6.6,22.6L16,32l9.4-9.4
				C30.5,17.5,30.5,9,25.4,3.9z M10,9.3V8.2h5.8c-0.7,0.5-1.3,1.3-1.4,2.2h-3.3C10.5,10.4,10,9.9,10,9.3z M21.5,14.2
				c0,0.6-0.5,1.1-1.1,1.1h-2.2c-0.6,0-1.1,0.5-1.1,1.1V18c0,1.8-1.5,3.3-3.3,3.3l0,0c-1.8,0-3.3-1.5-3.3-3.3v-2.7h1.1
				c0.6,0,1.1,0.5,1.1,1.1V18c0,0.6,0.5,1.1,1.1,1.1s1.1-0.5,1.1-1.1v-1.6c0-1.8,1.5-3.3,3.3-3.3h3.3C21.5,13.1,21.5,14.2,21.5,14.2
				z M22,9.3c0,0.6-0.5,1.1-1.1,1.1h-2.7c-0.6,0-1.1,0.5-1.1,1.1v1.1c-0.9,0.2-1.7,0.7-2.2,1.4v-2.6c0-1.8,1.5-3.3,3.3-3.3H22V9.3z"
				/>
		</defs>
		<clipPath id="SVGID_2_">
			<use xlink:href="#SVGID_1_"  style="overflow:visible;"/>
		</clipPath>
		<g class="st8">
			<rect x="0" class="st9" width="32" height="5.3"/>
			<rect x="0" y="5.3" class="st10" width="32" height="5.3"/>
			<rect x="0" y="10.7" class="st11" width="32" height="5.3"/>
			<rect x="0" y="16" class="st12" width="32" height="5.3"/>
			<rect x="0" y="21.3" class="st13" width="32" height="5.3"/>
			<rect x="0" y="26.7" class="st14" width="32" height="5.3"/>
		</g>
	</g>
</g>
</svg>
