<?xml version="1.0" encoding="utf-8"?>
<!-- Generator: Adobe Illustrator 21.0.2, SVG Export Plug-In . SVG Version: 6.00 Build 0)  -->
<svg version="1.1" id="Capa_1" xmlns="http://www.w3.org/2000/svg" xmlns:xlink="http://www.w3.org/1999/xlink" x="0px" y="0px"
	 viewBox="0 0 32 32" style="enable-background:new 0 0 32 32;" xml:space="preserve">
<style type="text/css">
	.st0{fill:#FFFFFF;}
</style>
<path class="st0" d="M25.4,3.9C22.8,1.3,19.4,0,16,0S9.2,1.3,6.6,3.9C1.5,9,1.5,17.5,6.6,22.6L16,32l9.4-9.4
	C30.5,17.5,30.5,9,25.4,3.9z M10,9.1V8h5.8c-0.7,0.5-1.3,1.3-1.4,2.2h-3.3C10.5,10.2,10,9.7,10,9.1z M21.5,14c0,0.6-0.5,1.1-1.1,1.1
	h-2.2c-0.6,0-1.1,0.5-1.1,1.1v1.6c0,1.8-1.5,3.3-3.3,3.3l0,0c-1.8,0-3.3-1.5-3.3-3.3v-2.7h1.1c0.6,0,1.1,0.5,1.1,1.1v1.6
	c0,0.6,0.5,1.1,1.1,1.1s1.1-0.5,1.1-1.1v-1.6c0-1.8,1.5-3.3,3.3-3.3h3.3C21.5,12.9,21.5,14,21.5,14z M22,9.1c0,0.6-0.5,1.1-1.1,1.1
	h-2.7c-0.6,0-1.1,0.5-1.1,1.1v1.1c-0.9,0.2-1.7,0.7-2.2,1.4v-2.6c0-1.8,1.5-3.3,3.3-3.3H22V9.1z"/>
</svg>
